<svg xmlns="http://www.w3.org/2000/svg" viewBox="0 0 183.19 189.52"><defs><style>.cls-1{fill:#73849a;}</style></defs><g id="Layer_2" data-name="Layer 2"><g id="Layer_1-2" data-name="Layer 1"><path class="cls-1" d="M.52,138.34v31c0,17.31,10.57,20.18,19.42,20.18,13.08,0,19.14-8.65,19.14-20.36V138.34H30.42V170.2c0,4-1.31,11.55-10.48,11.4-8.33-.15-9.88-7.83-9.88-12.75V138.34Z"/><path class="cls-1" d="M75.24,140.37a29.77,29.77,0,0,0-11.8-2.75c-7.82,0-17.66,4-17.66,15,0,7.62,5.6,11.23,9.43,13.08,2,1,4.49,2.1,6.51,3.19,1.05.57,5.2,2,5.2,6.48,0,4.82-5.27,6.46-7.63,6.46A27.61,27.61,0,0,1,45.1,178l.88,9.67s3.45,1.75,13.78,1.76c9.85,0,16.95-6.35,16.95-15.08,0-6.71-4.58-10.69-8.48-12.58-3.08-1.52-4.87-2.33-7.54-3.59s-5.43-3.44-5.43-6.82c0-3.62,3.3-6.21,8.18-6.21,7.16,0,10,3.24,11.8,4.27Z"/><path class="cls-1" d="M134.49,172.85l6.89-19.63,6.16,19.63Zm-41.5,0,6.9-19.63L106,172.85Zm52.69-34.59H135.29l1.65,4.19-16.13,43.09-16.63-47.28H93.79l1.66,4.19-17.2,45.94h9.39l3-8.75h17.78l3,8.75h17.73l3-8.75h17.77l3,8.75h10.4Z"/><path class="cls-1" d="M0,82,.44,97.62a15.61,15.61,0,0,1,8.13-2.85c4.31,0,9.16,3.1,9.16,3.1L56.22,120.4l3.26-14.16L17.73,81.82s-4.83-3.08-9.16-3.08S0,82,0,82"/><path class="cls-1" d="M0,61.47.44,77.14a15.61,15.61,0,0,1,8.13-2.85c4.31,0,9.16,3.1,9.16,3.1l42.65,25,3.25-14.16L17.73,61.34s-4.83-3.09-9.16-3.09S0,61.47,0,61.47"/><path class="cls-1" d="M0,41,.44,56.66a15.64,15.64,0,0,1,8.13-2.84c4.31,0,9.16,3.09,9.16,3.09L64.54,84.3l3.24-14.16-50-29.29s-4.83-3.07-9.16-3.07S0,41,0,41"/><path class="cls-1" d="M80.22,16.06l4.29,18.49,58.61,34.28s4.62,3.08,9.14,3.08,8.59-3.22,8.59-3.22L160.41,53a14.94,14.94,0,0,1-8.15,2.85c-4.47,0-9.14-3.09-9.14-3.09L97.77,26.24,94.64,14.35a.85.85,0,0,1,.61-.78l7.68-2.41a1.64,1.64,0,0,1,1.63,1.65l.41.85c.28.14,1.43-.42,1.52-.47V8.5a5.81,5.81,0,0,0-5.84-5.86H93A4.74,4.74,0,0,0,88.6,0H74a5,5,0,0,0-4.78,3.63l-10.11,41L17.74,20.38s-4.49-3.09-9.17-3.09S0,20.51,0,20.51L.44,36.17a14.1,14.1,0,0,1,8.13-2.83c4.69,0,9.17,3.1,9.17,3.1L68.67,66.23Z"/><path class="cls-1" d="M85.66,39.62l4.28,18.57L143.13,89.3s4.76,3.1,9.13,3.1,8.59-3.23,8.59-3.23l-.44-15.67a13.9,13.9,0,0,1-8.15,2.84c-4.75,0-9.13-3.08-9.13-3.08Z"/><path class="cls-1" d="M91.11,63.29l4.28,18.57,47.73,27.92s4.77,3.09,9.14,3.09,8.59-3.22,8.59-3.22L160.41,94a13.93,13.93,0,0,1-8.15,2.83c-4.75,0-9.14-3.08-9.14-3.08Z"/><path class="cls-1" d="M96.57,87l4.28,18.54,42.27,24.75s4.77,3.09,9.14,3.09,8.59-3.24,8.59-3.24l-.44-15.66a13.88,13.88,0,0,1-8.15,2.85c-4.75,0-9.14-3.11-9.14-3.11Z"/><path class="cls-1" d="M172.94,135.42a10.36,10.36,0,1,1-.05,0Zm-.05,1.62a8.39,8.39,0,1,0,.05,0ZM171,151.92h-1.86V140.29a20.86,20.86,0,0,1,3.3-.28,6,6,0,0,1,3.61.88,2.78,2.78,0,0,1,1.07,2.41,2.9,2.9,0,0,1-2.27,2.83v.09c1,.18,1.71,1.11,1.95,2.83a9.43,9.43,0,0,0,.74,2.87h-2a8.49,8.49,0,0,1-.79-3,2.18,2.18,0,0,0-2.51-2.05H171Zm0-6.45h1.34c1.54,0,2.83-.55,2.83-2,0-1-.74-2-2.83-2a10.49,10.49,0,0,0-1.34.08Z"/></g></g></svg>